# xmcd CD database file
#
# Track frame offsets:
#	150
#	16817
#	32515
#	49940
#	67175
#	79245
#	96102
#	108965
#	119920
#	136372
#	153210
#	169590
#	185937
#	197935
#	210967
#	223712
#	237502
#	251982
#	265725
#	275955
#	287352
#	300012
#	311580
#
# Disc length: 4372 seconds
#
# Revision: 0
# Processed by: cddbd v1.5.2PL0 Copyright (c) Steve Scherf et al.
# Submitted via: CDex 1.70beta2
#
DISCID=55111217
DTITLE=Jones Country - Jones Country JCY-006
DYEAR=0000
DGENRE=Country
TTITLE0=Merle Haggard and George Jones/C C Waterback
TTITLE1=Emmylou Harris/(You Never Can Tell) C'est La Vie
TTITLE2=Emmylou Harris/Beneath Still Waters
TTITLE3=Emmylou Harris/Born To Run
TTITLE4=Emmylou Harris/IfI Could Only Win Your Love
TTITLE5=Emmylou Harris/Save The Last Dance For Me
TTITLE6=Emmylou Harris/To Daddy
TTITLE7=Emmylou Harris, Dolly Parton and Linda Ronstadt/Mister Sandman
TTITLE8=Don Williams and Emmylou Harris/If I Needed You
TTITLE9=Highway 101/(Do You Love Me) Just Say Yes
TTITLE10=Willie Nelson and Julio Iglesias/Spanish Eyes
TTITLE11=Julio Iglesias and Willie Nelson/To All The Girls I've Loved Before
TTITLE12=Sonny James/It's Just A Matter Of Time
TTITLE13=Sonny James/My Love
TTITLE14=Sonny James/Running Bear
TTITLE15=Waylon Jennings/Amanda
TTITLE16=Waylon Jennings/Are You Ready For The Country
TTITLE17=Waylon Jennings/Sweet Dream Woman
TTITLE18=Waylon Jennings/Wurlitzer Prize (I Don't Want To Get Over You)
TTITLE19=George Jones/She's My Rock
TTITLE20=George Jones/Door
TTITLE21=Judds/Don't Be Cruel
TTITLE22=Judds/Guardian Angels
EXTD=YEAR: 0000
EXTT0=
EXTT1=
EXTT2=
EXTT3=
EXTT4=
EXTT5=
EXTT6=
EXTT7=
EXTT8=
EXTT9=
EXTT10=
EXTT11=
EXTT12=
EXTT13=
EXTT14=
EXTT15=
EXTT16=
EXTT17=
EXTT18=
EXTT19=
EXTT20=
EXTT21=
EXTT22=
PLAYORDER=
